<?xml version="1.0" encoding="UTF-8"?>
<!DOCTYPE svg PUBLIC "-//W3C//DTD SVG 1.1//EN" "http://www.w3.org/Graphics/SVG/1.1/DTD/svg11.dtd">
<svg xmlns="http://www.w3.org/2000/svg" version="1.1" width="672px" height="572px" style="shape-rendering:geometricPrecision; text-rendering:geometricPrecision; image-rendering:optimizeQuality; fill-rule:evenodd; clip-rule:evenodd" xmlns:xlink="http://www.w3.org/1999/xlink">
<g><path style="opacity:1" fill="#f8f5f4" d="M 135.5,100.5 C 135.715,98.8212 135.048,97.8212 133.5,97.5C 129.655,96.6082 125.821,95.6082 122,94.5C 120.93,94.528 120.097,94.8614 119.5,95.5C 118.833,96.1667 118.167,96.8333 117.5,97.5C 116.947,96.1769 117.447,94.8436 119,93.5C 119.661,89.3517 120.827,85.3517 122.5,81.5C 126.472,78.1727 130.806,77.6727 135.5,80C 137.708,81.8357 139.042,84.169 139.5,87C 138.07,91.5716 136.736,96.0716 135.5,100.5 Z"/></g>
<g><path style="opacity:1" fill="#c4e1c0" d="M 577.5,117.5 C 581.3,119.963 583.967,123.296 585.5,127.5C 584.573,131.445 585.906,134.112 589.5,135.5C 592.065,144.572 594.898,153.572 598,162.5C 598.667,173.167 598.667,183.833 598,194.5C 596.109,198.611 595.109,202.944 595,207.5C 591.745,212.866 589.578,218.699 588.5,225C 588.989,226.138 589.322,227.305 589.5,228.5C 584.412,243.93 580.245,259.596 577,275.5C 562.179,312.302 535.012,333.469 495.5,339C 465.506,342.667 438.173,336.001 413.5,319C 408.664,315.33 404.331,311.164 400.5,306.5C 400.457,302.91 398.957,300.243 396,298.5C 393.654,295.158 391.321,291.824 389,288.5C 387.795,284.037 386.129,279.703 384,275.5C 383.667,271.833 383.333,268.167 383,264.5C 381.989,263.663 380.822,263.33 379.5,263.5C 379.911,260.724 379.078,260.057 377,261.5C 374.747,262.619 373.58,264.452 373.5,267C 375.996,273.445 377.496,280.278 378,287.5C 379.011,288.337 380.178,288.67 381.5,288.5C 381.998,291.487 382.498,294.487 383,297.5C 383.816,298.823 384.983,299.489 386.5,299.5C 400.522,323.187 420.855,338.52 447.5,345.5C 447.5,346.5 447.5,347.5 447.5,348.5C 451.457,348.268 455.124,349.101 458.5,351C 457.833,352 457.167,353 456.5,354C 448.747,356.197 442.414,360.363 437.5,366.5C 432.794,368.776 427.794,370.276 422.5,371C 419.324,375.516 414.99,377.849 409.5,378C 405.888,379.139 402.554,380.806 399.5,383C 383.707,386.142 367.707,388.308 351.5,389.5C 340.784,389.493 330.118,388.827 319.5,387.5C 275.737,379.882 241.237,357.882 216,321.5C 217.043,317.262 219.543,313.928 223.5,311.5C 227.482,308.684 231.315,305.684 235,302.5C 235.494,300.866 235.66,299.199 235.5,297.5C 232.159,298.005 228.826,298.172 225.5,298C 223.741,296.992 222.574,295.492 222,293.5C 220.246,295.25 218.079,295.917 215.5,295.5C 215.828,301.031 213.161,304.031 207.5,304.5C 188.842,305.666 170.176,305.833 151.5,305C 149.649,304.163 147.816,303.329 146,302.5C 143.379,302.704 140.545,302.704 137.5,302.5C 137.5,300.833 137.5,299.167 137.5,297.5C 132.515,297.797 127.515,297.297 122.5,296C 120.101,295.269 117.935,294.102 116,292.5C 115,292.833 114,293.167 113,293.5C 111.068,291.962 108.901,290.795 106.5,290C 105.781,287.444 104.114,286.277 101.5,286.5C 101.819,284.25 101.319,282.25 100,280.5C 97.1997,281.443 94.3663,281.276 91.5,280C 88.8522,277.837 85.8522,276.337 82.5,275.5C 67.3515,263.852 54.8515,249.852 45,233.5C 27.7581,192.864 34.2581,156.697 64.5,125C 79.3918,111.722 96.7251,103.555 116.5,100.5C 118.948,101.473 121.615,101.806 124.5,101.5C 128.215,101.423 131.881,101.756 135.5,102.5C 139.705,102.589 142.371,104.589 143.5,108.5C 143.471,110.029 142.804,111.196 141.5,112C 138.526,112.993 135.526,113.826 132.5,114.5C 132.038,113.12 131.038,112.453 129.5,112.5C 125.268,113.084 121.268,114.084 117.5,115.5C 116.075,116.922 115.075,118.589 114.5,120.5C 104.648,129.26 98.1479,140.26 95,153.5C 90.9347,164.059 91.9347,174.059 98,183.5C 102.682,191.216 108.516,197.883 115.5,203.5C 116.252,205.1 117.252,206.6 118.5,208C 124.167,211.667 129.833,215.333 135.5,219C 143.316,219.998 151.149,220.832 159,221.5C 172.061,221.943 184.228,219.11 195.5,213C 197.387,209.269 200.387,207.436 204.5,207.5C 204.435,204.514 205.602,202.18 208,200.5C 208.498,197.518 208.665,194.518 208.5,191.5C 209.822,191.67 210.989,191.337 212,190.5C 214.936,186.294 216.436,181.627 216.5,176.5C 217.5,176.5 218.5,176.5 219.5,176.5C 220.506,170.45 223.84,166.45 229.5,164.5C 229.232,161.881 229.565,159.381 230.5,157C 231.333,156.833 232.167,156.667 233,156.5C 234.842,158.16 237.009,159.16 239.5,159.5C 239.5,158.167 239.5,156.833 239.5,155.5C 238.5,155.5 237.5,155.5 236.5,155.5C 236.286,153.856 236.62,152.356 237.5,151C 240.063,149.921 242.729,149.421 245.5,149.5C 245.298,147.011 245.798,144.677 247,142.5C 251.254,139.24 255.754,136.407 260.5,134C 264.658,126.752 270.992,123.419 279.5,124C 282.486,121.159 285.486,118.493 288.5,116C 290.198,116.497 291.865,116.33 293.5,115.5C 294.386,114.675 294.719,113.675 294.5,112.5C 297.987,112.095 301.32,111.095 304.5,109.5C 305.801,110.478 306.968,110.145 308,108.5C 312.751,107.531 317.251,106.197 321.5,104.5C 332.798,103.124 344.132,102.124 355.5,101.5C 366.835,101.97 378.168,102.47 389.5,103C 398.293,107.136 407.626,109.136 417.5,109C 419.33,111.901 421.996,113.068 425.5,112.5C 432.595,112.087 437.928,108.753 441.5,102.5C 443.304,101.232 445.304,100.565 447.5,100.5C 447.5,99.5 447.5,98.5 447.5,97.5C 448.514,96.3263 449.847,95.6596 451.5,95.5C 461.269,93.0459 471.102,90.7126 481,88.5C 491.803,89.2339 502.803,89.2339 514,88.5C 525.044,89.5177 535.544,92.351 545.5,97C 544.939,98.5655 545.606,99.8989 547.5,101C 553.995,102.107 559.995,104.273 565.5,107.5C 565.281,108.675 565.614,109.675 566.5,110.5C 569.7,113.598 573.367,115.932 577.5,117.5 Z"/></g>
<g><path style="opacity:1" fill="#e21713" d="M 133.5,97.5 C 133.804,98.1499 134.137,98.8165 134.5,99.5C 133,99.8333 131.5,100.167 130,100.5C 126.51,100.001 123.01,99.668 119.5,99.5C 119.5,98.1667 119.5,96.8333 119.5,95.5C 120.097,94.8614 120.93,94.528 122,94.5C 125.821,95.6082 129.655,96.6082 133.5,97.5 Z"/></g>
<g><path style="opacity:1" fill="#cce1c9" d="M 577.5,117.5 C 573.367,115.932 569.7,113.598 566.5,110.5C 565.614,109.675 565.281,108.675 565.5,107.5C 559.995,104.273 553.995,102.107 547.5,101C 545.606,99.8989 544.939,98.5655 545.5,97C 535.544,92.351 525.044,89.5177 514,88.5C 502.803,89.2339 491.803,89.2339 481,88.5C 471.102,90.7126 461.269,93.0459 451.5,95.5C 471.449,86.5111 492.449,83.3444 514.5,86C 539.45,89.0129 560.45,99.5129 577.5,117.5 Z"/></g>
<g><path style="opacity:1" fill="#cd322c" d="M 119.5,95.5 C 119.5,96.8333 119.5,98.1667 119.5,99.5C 123.01,99.668 126.51,100.001 130,100.5C 131.5,100.167 133,99.8333 134.5,99.5C 134.137,98.8165 133.804,98.1499 133.5,97.5C 135.048,97.8212 135.715,98.8212 135.5,100.5C 135.5,101.167 135.5,101.833 135.5,102.5C 131.881,101.756 128.215,101.423 124.5,101.5C 121.841,101.083 119.508,100.083 117.5,98.5C 117.5,98.1667 117.5,97.8333 117.5,97.5C 118.167,96.8333 118.833,96.1667 119.5,95.5 Z"/></g>
<g><path style="opacity:1" fill="#ef9180" d="M 117.5,98.5 C 119.508,100.083 121.841,101.083 124.5,101.5C 121.615,101.806 118.948,101.473 116.5,100.5C 116.328,99.5084 116.662,98.8417 117.5,98.5 Z"/></g>
<g><path style="opacity:1" fill="#cce0c8" d="M 447.5,97.5 C 447.5,98.5 447.5,99.5 447.5,100.5C 445.304,100.565 443.304,101.232 441.5,102.5C 437.928,108.753 432.595,112.087 425.5,112.5C 421.996,113.068 419.33,111.901 417.5,109C 407.626,109.136 398.293,107.136 389.5,103C 378.168,102.47 366.835,101.97 355.5,101.5C 344.132,102.124 332.798,103.124 321.5,104.5C 357.066,96.6332 392.233,98.6332 427,110.5C 433.457,105.537 440.291,101.203 447.5,97.5 Z"/></g>
<g><path style="opacity:1" fill="#e5c9b4" d="M 132.5,114.5 C 132.448,117.346 131.448,119.68 129.5,121.5C 130.219,119.236 130.552,116.903 130.5,114.5C 126.215,115.295 121.881,115.628 117.5,115.5C 121.268,114.084 125.268,113.084 129.5,112.5C 131.038,112.453 132.038,113.12 132.5,114.5 Z"/></g>
<g><path style="opacity:1" fill="#cd3b30" d="M 129.5,121.5 C 129.5,122.167 129.167,122.5 128.5,122.5C 125.167,122.5 121.833,122.5 118.5,122.5C 117.508,122.672 116.842,122.338 116.5,121.5C 115.833,121.5 115.167,121.5 114.5,121.5C 114.5,121.167 114.5,120.833 114.5,120.5C 115.075,118.589 116.075,116.922 117.5,115.5C 121.881,115.628 126.215,115.295 130.5,114.5C 130.552,116.903 130.219,119.236 129.5,121.5 Z"/></g>
<g><path style="opacity:1" fill="#ec0304" d="M 116.5,121.5 C 116.297,119.61 116.963,118.11 118.5,117C 121.817,116.502 125.15,116.335 128.5,116.5C 128.5,118.167 128.5,119.833 128.5,121.5C 124.5,121.5 120.5,121.5 116.5,121.5 Z"/></g>
<g><path style="opacity:1" fill="#fce6ef" d="M 114.5,121.5 C 113.833,122.167 113.833,122.167 114.5,121.5 Z"/></g>
<g><path style="opacity:1" fill="#eb8385" d="M 118.5,122.5 C 121.833,122.5 125.167,122.5 128.5,122.5C 127.469,123.249 126.302,123.915 125,124.5C 122.723,123.883 120.556,123.216 118.5,122.5 Z"/></g>
<g><path style="opacity:0.133" fill="#f7f4ee" d="M 116.5,123.5 C 117.833,124.167 117.833,124.167 116.5,123.5 Z"/></g>
<g><path style="opacity:1" fill="#cce1c8" d="M 585.5,127.5 C 589.048,130.906 591.882,134.906 594,139.5C 602.586,158.94 604.252,178.94 599,199.5C 596.097,209.374 592.93,219.041 589.5,228.5C 589.322,227.305 588.989,226.138 588.5,225C 589.578,218.699 591.745,212.866 595,207.5C 595.109,202.944 596.109,198.611 598,194.5C 598.667,183.833 598.667,173.167 598,162.5C 594.898,153.572 592.065,144.572 589.5,135.5C 585.906,134.112 584.573,131.445 585.5,127.5 Z"/></g>
<g><path style="opacity:1" fill="#fcfdfb" d="M 275.5,172.5 C 277.527,172.338 279.527,172.505 281.5,173C 282.988,174.717 284.821,175.884 287,176.5C 294.108,191.412 292.608,205.246 282.5,218C 281.333,218.167 280.167,218.333 279,218.5C 276.315,217.819 273.982,216.485 272,214.5C 266.895,203.143 266.228,191.476 270,179.5C 271.852,177.043 273.686,174.709 275.5,172.5 Z"/></g>
<g><path style="opacity:1" fill="#cbe1c7" d="M 321.5,104.5 C 317.251,106.197 312.751,107.531 308,108.5C 306.968,110.145 305.801,110.478 304.5,109.5C 301.32,111.095 297.987,112.095 294.5,112.5C 294.719,113.675 294.386,114.675 293.5,115.5C 291.865,116.33 290.198,116.497 288.5,116C 285.486,118.493 282.486,121.159 279.5,124C 270.992,123.419 264.658,126.752 260.5,134C 255.754,136.407 251.254,139.24 247,142.5C 245.798,144.677 245.298,147.011 245.5,149.5C 242.729,149.421 240.063,149.921 237.5,151C 236.62,152.356 236.286,153.856 236.5,155.5C 237.5,155.5 238.5,155.5 239.5,155.5C 239.5,156.833 239.5,158.167 239.5,159.5C 237.009,159.16 234.842,158.16 233,156.5C 232.167,156.667 231.333,156.833 230.5,157C 229.565,159.381 229.232,161.881 229.5,164.5C 223.84,166.45 220.506,170.45 219.5,176.5C 218.5,176.5 217.5,176.5 216.5,176.5C 216.436,181.627 214.936,186.294 212,190.5C 210.989,191.337 209.822,191.67 208.5,191.5C 208.665,194.518 208.498,197.518 208,200.5C 205.602,202.18 204.435,204.514 204.5,207.5C 200.387,207.436 197.387,209.269 195.5,213C 184.228,219.11 172.061,221.943 159,221.5C 151.149,220.832 143.316,219.998 135.5,219C 129.833,215.333 124.167,211.667 118.5,208C 117.252,206.6 116.252,205.1 115.5,203.5C 143.605,221.996 172.105,222.663 201,205.5C 220.493,155.013 256.327,122.18 308.5,107C 312.754,105.686 317.087,104.853 321.5,104.5 Z"/></g>
<g><path style="opacity:1" fill="#cde2ca" d="M 400.5,306.5 C 389.7,294.906 382.533,281.24 379,265.5C 378.82,277.415 381.32,288.748 386.5,299.5C 384.983,299.489 383.816,298.823 383,297.5C 382.498,294.487 381.998,291.487 381.5,288.5C 380.178,288.67 379.011,288.337 378,287.5C 377.496,280.278 375.996,273.445 373.5,267C 373.58,264.452 374.747,262.619 377,261.5C 379.078,260.057 379.911,260.724 379.5,263.5C 380.822,263.33 381.989,263.663 383,264.5C 383.333,268.167 383.667,271.833 384,275.5C 386.129,279.703 387.795,284.037 389,288.5C 391.321,291.824 393.654,295.158 396,298.5C 398.957,300.243 400.457,302.91 400.5,306.5 Z"/></g>
<g><path style="opacity:1" fill="#c9e0c6" d="M 82.5,275.5 C 85.8522,276.337 88.8522,277.837 91.5,280C 94.3663,281.276 97.1997,281.443 100,280.5C 101.319,282.25 101.819,284.25 101.5,286.5C 104.114,286.277 105.781,287.444 106.5,290C 108.901,290.795 111.068,291.962 113,293.5C 114,293.167 115,292.833 116,292.5C 117.935,294.102 120.101,295.269 122.5,296C 127.515,297.297 132.515,297.797 137.5,297.5C 137.5,299.167 137.5,300.833 137.5,302.5C 140.545,302.704 143.379,302.704 146,302.5C 147.816,303.329 149.649,304.163 151.5,305C 170.176,305.833 188.842,305.666 207.5,304.5C 213.161,304.031 215.828,301.031 215.5,295.5C 218.079,295.917 220.246,295.25 222,293.5C 222.574,295.492 223.741,296.992 225.5,298C 228.826,298.172 232.159,298.005 235.5,297.5C 235.66,299.199 235.494,300.866 235,302.5C 231.315,305.684 227.482,308.684 223.5,311.5C 225.244,307.906 227.244,304.406 229.5,301C 218.681,303.706 207.681,306.039 196.5,308C 163.243,311.748 131.909,305.748 102.5,290C 95.235,285.879 88.5684,281.046 82.5,275.5 Z"/></g>
<g><path style="opacity:1" fill="#cce1c9" d="M 447.5,345.5 C 454.809,346.472 462.142,347.306 469.5,348C 446.719,365.391 421.386,378.057 393.5,386C 368.779,391.307 344.112,391.807 319.5,387.5C 330.118,388.827 340.784,389.493 351.5,389.5C 367.707,388.308 383.707,386.142 399.5,383C 402.554,380.806 405.888,379.139 409.5,378C 414.99,377.849 419.324,375.516 422.5,371C 427.794,370.276 432.794,368.776 437.5,366.5C 442.414,360.363 448.747,356.197 456.5,354C 457.167,353 457.833,352 458.5,351C 455.124,349.101 451.457,348.268 447.5,348.5C 447.5,347.5 447.5,346.5 447.5,345.5 Z"/></g>
<g><path style="opacity:1" fill="#eeddda" d="M 390.5,437.5 C 391.502,432.163 392.502,426.83 393.5,421.5C 389.762,420.387 386.096,419.387 382.5,418.5C 381.833,418.5 381.167,418.5 380.5,418.5C 381.194,414.198 382.86,410.365 385.5,407C 392.409,404.777 396.409,407.111 397.5,414C 395.618,420.408 394.118,426.908 393,433.5C 392.8,435.32 391.966,436.653 390.5,437.5 Z"/></g>
<g><path style="opacity:1" fill="#fcfcfc" d="M 382.5,418.5 C 381.744,410.759 385.078,407.259 392.5,408C 396.074,411.524 396.407,415.358 393.5,419.5C 389.906,418.574 386.24,418.241 382.5,418.5 Z"/></g>
<g><path style="opacity:1" fill="#ffe9dc" d="M 379.5,418.5 C 379.198,421.373 378.531,424.039 377.5,426.5C 377.337,424.143 377.503,421.81 378,419.5C 378.383,418.944 378.883,418.611 379.5,418.5 Z"/></g>
<g><path style="opacity:1" fill="#d42924" d="M 379.5,418.5 C 379.833,418.5 380.167,418.5 380.5,418.5C 381.167,418.5 381.833,418.5 382.5,418.5C 386.096,419.387 389.762,420.387 393.5,421.5C 392.502,426.83 391.502,432.163 390.5,437.5C 390.167,438.5 389.5,439.167 388.5,439.5C 386.5,439.5 384.5,439.5 382.5,439.5C 381.833,439.5 381.167,439.5 380.5,439.5C 376.364,436.871 375.364,433.205 377.5,428.5C 377.5,427.833 377.5,427.167 377.5,426.5C 378.531,424.039 379.198,421.373 379.5,418.5 Z"/></g>
<g><path style="opacity:1" fill="#141414" d="M 244.5,425.5 C 264.5,425.5 284.5,425.5 304.5,425.5C 304.5,432.5 304.5,439.5 304.5,446.5C 301.167,446.5 297.833,446.5 294.5,446.5C 294.5,442.5 294.5,438.5 294.5,434.5C 284.833,434.5 275.167,434.5 265.5,434.5C 265.5,441.5 265.5,448.5 265.5,455.5C 274.167,455.5 282.833,455.5 291.5,455.5C 291.5,458.5 291.5,461.5 291.5,464.5C 282.833,464.5 274.167,464.5 265.5,464.5C 265.5,472.167 265.5,479.833 265.5,487.5C 275.167,487.5 284.833,487.5 294.5,487.5C 294.5,483.167 294.5,478.833 294.5,474.5C 297.833,474.5 301.167,474.5 304.5,474.5C 304.5,481.833 304.5,489.167 304.5,496.5C 284.5,496.5 264.5,496.5 244.5,496.5C 244.5,493.5 244.5,490.5 244.5,487.5C 247.5,487.5 250.5,487.5 253.5,487.5C 253.5,469.833 253.5,452.167 253.5,434.5C 250.5,434.5 247.5,434.5 244.5,434.5C 244.5,431.5 244.5,428.5 244.5,425.5 Z"/></g>
<g><path style="opacity:1" fill="#101010" d="M 327.5,425.5 C 327.169,446.34 327.503,467.007 328.5,487.5C 331.167,487.5 333.833,487.5 336.5,487.5C 336.5,490.5 336.5,493.5 336.5,496.5C 327.5,496.5 318.5,496.5 309.5,496.5C 309.5,493.5 309.5,490.5 309.5,487.5C 312.5,487.5 315.5,487.5 318.5,487.5C 318.5,469.833 318.5,452.167 318.5,434.5C 315.5,434.5 312.5,434.5 309.5,434.5C 309.5,431.5 309.5,428.5 309.5,425.5C 315.5,425.5 321.5,425.5 327.5,425.5 Z"/></g>
<g><path style="opacity:1" fill="#4c4c4c" d="M 327.5,425.5 C 328.239,425.369 328.906,425.536 329.5,426C 328.564,445.872 328.231,466.372 328.5,487.5C 327.503,467.007 327.169,446.34 327.5,425.5 Z"/></g>
<g><path style="opacity:1" fill="#101010" d="M 341.5,425.5 C 347.5,425.5 353.5,425.5 359.5,425.5C 359.5,446.167 359.5,466.833 359.5,487.5C 362.167,487.5 364.833,487.5 367.5,487.5C 367.5,490.5 367.5,493.5 367.5,496.5C 358.5,496.5 349.5,496.5 340.5,496.5C 340.5,493.5 340.5,490.5 340.5,487.5C 343.5,487.5 346.5,487.5 349.5,487.5C 350.166,478.84 350.5,470.006 350.5,461C 350.498,451.807 349.832,442.974 348.5,434.5C 346.167,434.5 343.833,434.5 341.5,434.5C 341.5,431.5 341.5,428.5 341.5,425.5 Z"/></g>
<g><path style="opacity:1" fill="#717171" d="M 341.5,425.5 C 341.5,428.5 341.5,431.5 341.5,434.5C 340.761,434.631 340.094,434.464 339.5,434C 340.128,431.061 340.795,428.228 341.5,425.5 Z"/></g>
<g><path style="opacity:1" fill="#ffe6db" d="M 377.5,428.5 C 375.364,433.205 376.364,436.871 380.5,439.5C 378.61,439.703 377.11,439.037 376,437.5C 375.073,434.137 375.573,431.137 377.5,428.5 Z"/></g>
<g><path style="opacity:1" fill="#f10203" d="M 380.5,420.5 C 384.285,420.631 387.952,421.298 391.5,422.5C 391.234,428.054 390.234,433.388 388.5,438.5C 385.117,438.743 381.951,438.076 379,436.5C 379.45,431.202 379.95,425.868 380.5,420.5 Z"/></g>
<g><path style="opacity:1" fill="#484848" d="M 348.5,434.5 C 349.832,442.974 350.498,451.807 350.5,461C 350.5,470.006 350.166,478.84 349.5,487.5C 349.819,469.757 349.486,452.09 348.5,434.5 Z"/></g>
<g><path style="opacity:1" fill="#ffdbcf" d="M 382.5,439.5 C 384.5,439.5 386.5,439.5 388.5,439.5C 387.122,440.234 385.622,440.901 384,441.5C 383.283,440.956 382.783,440.289 382.5,439.5 Z"/></g>
<g><path style="opacity:1" fill="#151515" d="M 447.5,452.5 C 448.167,453.833 449.167,454.833 450.5,455.5C 450.738,457.404 451.738,458.738 453.5,459.5C 453.41,462.152 454.076,464.485 455.5,466.5C 455.5,468.833 455.5,471.167 455.5,473.5C 442.167,473.5 428.833,473.5 415.5,473.5C 414.861,474.097 414.528,474.93 414.5,476C 414.387,477.699 415.053,478.866 416.5,479.5C 425.269,491.623 435.269,492.623 446.5,482.5C 447.391,481.89 448.391,481.557 449.5,481.5C 452.09,481.918 454.423,482.918 456.5,484.5C 448.245,495.425 437.245,499.591 423.5,497C 405.163,490.163 399.496,477.663 406.5,459.5C 407.906,459.027 408.573,458.027 408.5,456.5C 415.523,447.21 424.857,443.71 436.5,446C 440.858,447.172 444.525,449.339 447.5,452.5 Z M 432.5,453.5 C 433.93,454.537 435.597,455.204 437.5,455.5C 439.473,456.806 441.139,458.473 442.5,460.5C 442.833,460.5 443.167,460.5 443.5,460.5C 443.66,462.153 444.326,463.486 445.5,464.5C 435.889,466.474 425.889,467.141 415.5,466.5C 417.53,457.63 423.197,453.297 432.5,453.5 Z"/></g>
<g><path style="opacity:1" fill="#141414" d="M 372.5,446.5 C 378.5,446.5 384.5,446.5 390.5,446.5C 390.5,460.167 390.5,473.833 390.5,487.5C 393.167,487.5 395.833,487.5 398.5,487.5C 398.5,490.5 398.5,493.5 398.5,496.5C 389.833,496.5 381.167,496.5 372.5,496.5C 372.5,493.5 372.5,490.5 372.5,487.5C 375.167,487.5 377.833,487.5 380.5,487.5C 380.5,476.833 380.5,466.167 380.5,455.5C 377.833,455.5 375.167,455.5 372.5,455.5C 372.5,452.5 372.5,449.5 372.5,446.5 Z"/></g>
<g><path style="opacity:1" fill="#a4a4a4" d="M 447.5,452.5 C 449.5,452.5 450.5,453.5 450.5,455.5C 449.167,454.833 448.167,453.833 447.5,452.5 Z"/></g>
<g><path style="opacity:1" fill="#7b7b7b" d="M 432.5,453.5 C 434.698,453.12 436.365,453.787 437.5,455.5C 435.597,455.204 433.93,454.537 432.5,453.5 Z"/></g>
<g><path style="opacity:1" fill="#7d7d7d" d="M 450.5,455.5 C 452.262,456.262 453.262,457.596 453.5,459.5C 451.738,458.738 450.738,457.404 450.5,455.5 Z"/></g>
<g><path style="opacity:1" fill="#8b8b8b" d="M 408.5,456.5 C 408.573,458.027 407.906,459.027 406.5,459.5C 406.427,457.973 407.094,456.973 408.5,456.5 Z"/></g>
<g><path style="opacity:1" fill="#ababab" d="M 443.5,460.5 C 445.104,461.287 445.771,462.62 445.5,464.5C 444.326,463.486 443.66,462.153 443.5,460.5 Z"/></g>
<g><path style="opacity:1" fill="#777777" d="M 453.5,459.5 C 454.924,461.515 455.59,463.848 455.5,466.5C 454.076,464.485 453.41,462.152 453.5,459.5 Z"/></g>
<g><path style="opacity:1" fill="#9a9a9a" d="M 455.5,466.5 C 456.216,468.556 456.883,470.723 457.5,473C 456.906,473.464 456.239,473.631 455.5,473.5C 455.5,471.167 455.5,468.833 455.5,466.5 Z"/></g>
<g><path style="opacity:1" fill="#868686" d="M 415.5,473.5 C 415.517,475.565 415.85,477.565 416.5,479.5C 415.053,478.866 414.387,477.699 414.5,476C 414.528,474.93 414.861,474.097 415.5,473.5 Z"/></g>
<g><path style="opacity:1" fill="#8c8c8c" d="M 449.5,481.5 C 448.391,481.557 447.391,481.89 446.5,482.5C 447.053,480.448 448.053,480.115 449.5,481.5 Z"/></g>
</svg>
