<?xml version="1.0" encoding="UTF-8"?>
<!DOCTYPE svg PUBLIC "-//W3C//DTD SVG 1.1//EN" "http://www.w3.org/Graphics/SVG/1.1/DTD/svg11.dtd">
<svg xmlns="http://www.w3.org/2000/svg" version="1.1" width="740px" height="740px" style="shape-rendering:geometricPrecision; text-rendering:geometricPrecision; image-rendering:optimizeQuality; fill-rule:evenodd; clip-rule:evenodd" xmlns:xlink="http://www.w3.org/1999/xlink">
<g><path style="opacity:1" fill="#f8f5f4" d="M 169.5,184.5 C 169.715,182.821 169.048,181.821 167.5,181.5C 163.655,180.608 159.821,179.608 156,178.5C 154.93,178.528 154.097,178.861 153.5,179.5C 152.833,180.167 152.167,180.833 151.5,181.5C 150.947,180.177 151.447,178.844 153,177.5C 153.661,173.352 154.827,169.352 156.5,165.5C 160.472,162.173 164.806,161.673 169.5,164C 171.708,165.836 173.042,168.169 173.5,171C 172.07,175.572 170.736,180.072 169.5,184.5 Z"/></g>
<g><path style="opacity:1" fill="#cbe0c8" d="M 611.5,201.5 C 607.656,199.533 603.989,197.199 600.5,194.5C 599.614,193.675 599.281,192.675 599.5,191.5C 593.995,188.273 587.995,186.107 581.5,185C 579.606,183.899 578.939,182.566 579.5,181C 569.544,176.351 559.044,173.518 548,172.5C 536.803,173.234 525.803,173.234 515,172.5C 505.42,174.632 495.92,176.965 486.5,179.5C 496.419,174.253 507.086,171.087 518.5,170C 548.162,166.499 575.162,173.166 599.5,190C 604.002,193.336 608.002,197.169 611.5,201.5 Z"/></g>
<g><path style="opacity:1" fill="#c4e1c0" d="M 611.5,201.5 C 615.3,203.963 617.967,207.296 619.5,211.5C 618.573,215.445 619.906,218.112 623.5,219.5C 626.065,228.572 628.898,237.572 632,246.5C 632.667,257.167 632.667,267.833 632,278.5C 630.109,282.611 629.109,286.944 629,291.5C 625.745,296.866 623.578,302.699 622.5,309C 622.989,310.138 623.322,311.305 623.5,312.5C 617.223,331.277 611.723,350.277 607,369.5C 590.493,400.529 564.659,418.362 529.5,423C 497.016,426.966 468.016,418.966 442.5,399C 427.166,385.84 417.332,369.34 413,349.5C 413.477,373.621 422.977,393.454 441.5,409C 453.622,418.228 466.956,425.061 481.5,429.5C 481.5,430.5 481.5,431.5 481.5,432.5C 485.457,432.268 489.124,433.101 492.5,435C 490.747,436.999 489.413,439.165 488.5,441.5C 483.952,443.176 479.286,444.676 474.5,446C 473.323,449.349 470.99,450.849 467.5,450.5C 467.663,448.143 467.497,445.81 467,443.5C 465.595,446.619 465.095,449.952 465.5,453.5C 462.393,453.351 459.393,453.851 456.5,455C 453.324,459.516 448.99,461.849 443.5,462C 439.888,463.139 436.554,464.806 433.5,467C 425.695,468.979 417.695,470.313 409.5,471C 385.167,472.297 361.167,471.13 337.5,467.5C 299.815,458.146 270.482,437.146 249.5,404.5C 251.48,400.863 254.146,397.863 257.5,395.5C 262.737,393.315 265.07,389.315 264.5,383.5C 261.116,383.66 257.783,383.327 254.5,382.5C 251.332,383.112 248.666,384.612 246.5,387C 226.269,389.502 205.935,390.169 185.5,389C 183.649,388.163 181.816,387.329 180,386.5C 177.379,386.704 174.545,386.704 171.5,386.5C 171.5,384.833 171.5,383.167 171.5,381.5C 166.515,381.797 161.515,381.297 156.5,380C 154.101,379.269 151.935,378.102 150,376.5C 149,376.833 148,377.167 147,377.5C 145.068,375.962 142.901,374.795 140.5,374C 139.781,371.444 138.114,370.277 135.5,370.5C 135.819,368.25 135.319,366.25 134,364.5C 131.2,365.443 128.366,365.276 125.5,364C 121.833,361 118.167,358 114.5,355C 113.552,354.517 112.552,354.351 111.5,354.5C 111.98,351.995 112.98,349.662 114.5,347.5C 114.023,346.069 113.357,344.736 112.5,343.5C 111.162,345.337 109.662,347.003 108,348.5C 106.167,348 105,346.833 104.5,345C 106.175,343.498 107.841,341.998 109.5,340.5C 108.372,339.738 107.205,339.071 106,338.5C 103.895,339.311 101.895,340.311 100,341.5C 98.5054,339.837 96.672,338.837 94.5,338.5C 73.846,316.262 66.0127,289.929 71,259.5C 81.131,217.204 107.631,192.204 150.5,184.5C 152.948,185.473 155.615,185.806 158.5,185.5C 162.215,185.423 165.881,185.756 169.5,186.5C 173.705,186.589 176.371,188.589 177.5,192.5C 177.471,194.029 176.804,195.196 175.5,196C 172.526,196.993 169.526,197.826 166.5,198.5C 166.038,197.12 165.038,196.453 163.5,196.5C 159.268,197.084 155.268,198.084 151.5,199.5C 150.075,200.922 149.075,202.589 148.5,204.5C 139.876,212.37 133.71,222.037 130,233.5C 124.706,245.281 125.373,256.615 132,267.5C 153.477,298.141 182.311,308.308 218.5,298C 224.112,295.861 229.446,293.194 234.5,290C 236.976,284.882 239.31,279.715 241.5,274.5C 244.716,271.686 247.382,268.353 249.5,264.5C 250.429,263.311 250.762,261.978 250.5,260.5C 251.5,260.5 252.5,260.5 253.5,260.5C 254.506,254.45 257.84,250.45 263.5,248.5C 263.232,245.881 263.565,243.381 264.5,241C 265.333,240.833 266.167,240.667 267,240.5C 268.842,242.16 271.009,243.16 273.5,243.5C 273.5,242.167 273.5,240.833 273.5,239.5C 272.5,239.5 271.5,239.5 270.5,239.5C 270.286,237.856 270.62,236.356 271.5,235C 274.063,233.921 276.729,233.421 279.5,233.5C 279.298,231.011 279.798,228.677 281,226.5C 285.254,223.24 289.754,220.407 294.5,218C 298.658,210.752 304.992,207.419 313.5,208C 316.486,205.159 319.486,202.493 322.5,200C 324.198,200.497 325.865,200.33 327.5,199.5C 328.386,198.675 328.719,197.675 328.5,196.5C 331.839,196.11 335.173,195.61 338.5,195C 341.311,193.175 344.311,191.842 347.5,191C 356.082,190.081 364.582,188.914 373,187.5C 373.333,187.833 373.667,188.167 374,188.5C 375.667,187.833 377.333,187.167 379,186.5C 393.017,186.612 409.184,187.278 427.5,188.5C 435.118,191.605 443.118,193.105 451.5,193C 453.33,195.901 455.996,197.068 459.5,196.5C 466.595,196.087 471.928,192.753 475.5,186.5C 477.304,185.232 479.304,184.565 481.5,184.5C 481.5,183.5 481.5,182.5 481.5,181.5C 482.78,180.069 484.447,179.402 486.5,179.5C 495.92,176.965 505.42,174.632 515,172.5C 525.803,173.234 536.803,173.234 548,172.5C 559.044,173.518 569.544,176.351 579.5,181C 578.939,182.566 579.606,183.899 581.5,185C 587.995,186.107 593.995,188.273 599.5,191.5C 599.281,192.675 599.614,193.675 600.5,194.5C 603.989,197.199 607.656,199.533 611.5,201.5 Z"/></g>
<g><path style="opacity:1" fill="#e21713" d="M 167.5,181.5 C 167.804,182.15 168.137,182.817 168.5,183.5C 167,183.833 165.5,184.167 164,184.5C 160.51,184.001 157.01,183.668 153.5,183.5C 153.5,182.167 153.5,180.833 153.5,179.5C 154.097,178.861 154.93,178.528 156,178.5C 159.821,179.608 163.655,180.608 167.5,181.5 Z"/></g>
<g><path style="opacity:1" fill="#cd322c" d="M 153.5,179.5 C 153.5,180.833 153.5,182.167 153.5,183.5C 157.01,183.668 160.51,184.001 164,184.5C 165.5,184.167 167,183.833 168.5,183.5C 168.137,182.817 167.804,182.15 167.5,181.5C 169.048,181.821 169.715,182.821 169.5,184.5C 169.5,185.167 169.5,185.833 169.5,186.5C 165.881,185.756 162.215,185.423 158.5,185.5C 155.841,185.083 153.508,184.083 151.5,182.5C 151.5,182.167 151.5,181.833 151.5,181.5C 152.167,180.833 152.833,180.167 153.5,179.5 Z"/></g>
<g><path style="opacity:1" fill="#ef9180" d="M 151.5,182.5 C 153.508,184.083 155.841,185.083 158.5,185.5C 155.615,185.806 152.948,185.473 150.5,184.5C 150.328,183.508 150.662,182.842 151.5,182.5 Z"/></g>
<g><path style="opacity:1" fill="#cbe1c8" d="M 481.5,181.5 C 481.5,182.5 481.5,183.5 481.5,184.5C 479.304,184.565 477.304,185.232 475.5,186.5C 471.928,192.753 466.595,196.087 459.5,196.5C 455.996,197.068 453.33,195.901 451.5,193C 443.118,193.105 435.118,191.605 427.5,188.5C 409.184,187.278 393.017,186.612 379,186.5C 377.333,187.167 375.667,187.833 374,188.5C 373.667,188.167 373.333,187.833 373,187.5C 364.582,188.914 356.082,190.081 347.5,191C 344.311,191.842 341.311,193.175 338.5,195C 335.173,195.61 331.839,196.11 328.5,196.5C 328.719,197.675 328.386,198.675 327.5,199.5C 325.865,200.33 324.198,200.497 322.5,200C 319.486,202.493 316.486,205.159 313.5,208C 304.992,207.419 298.658,210.752 294.5,218C 289.754,220.407 285.254,223.24 281,226.5C 279.798,228.677 279.298,231.011 279.5,233.5C 276.729,233.421 274.063,233.921 271.5,235C 270.62,236.356 270.286,237.856 270.5,239.5C 271.5,239.5 272.5,239.5 273.5,239.5C 273.5,240.833 273.5,242.167 273.5,243.5C 271.009,243.16 268.842,242.16 267,240.5C 266.167,240.667 265.333,240.833 264.5,241C 263.565,243.381 263.232,245.881 263.5,248.5C 257.84,250.45 254.506,254.45 253.5,260.5C 252.5,260.5 251.5,260.5 250.5,260.5C 250.762,261.978 250.429,263.311 249.5,264.5C 247.382,268.353 244.716,271.686 241.5,274.5C 259.766,237.073 288.433,210.906 327.5,196C 371.813,179.954 416.313,179.454 461,194.5C 467.457,189.537 474.291,185.203 481.5,181.5 Z"/></g>
<g><path style="opacity:1" fill="#e5c9b4" d="M 166.5,198.5 C 166.448,201.346 165.448,203.68 163.5,205.5C 164.219,203.236 164.552,200.903 164.5,198.5C 160.215,199.295 155.881,199.628 151.5,199.5C 155.268,198.084 159.268,197.084 163.5,196.5C 165.038,196.453 166.038,197.12 166.5,198.5 Z"/></g>
<g><path style="opacity:1" fill="#cd3b30" d="M 163.5,205.5 C 163.5,206.167 163.167,206.5 162.5,206.5C 159.167,206.5 155.833,206.5 152.5,206.5C 151.508,206.672 150.842,206.338 150.5,205.5C 149.833,205.5 149.167,205.5 148.5,205.5C 148.5,205.167 148.5,204.833 148.5,204.5C 149.075,202.589 150.075,200.922 151.5,199.5C 155.881,199.628 160.215,199.295 164.5,198.5C 164.552,200.903 164.219,203.236 163.5,205.5 Z"/></g>
<g><path style="opacity:1" fill="#ec0304" d="M 150.5,205.5 C 150.297,203.61 150.963,202.11 152.5,201C 155.817,200.502 159.15,200.335 162.5,200.5C 162.5,202.167 162.5,203.833 162.5,205.5C 158.5,205.5 154.5,205.5 150.5,205.5 Z"/></g>
<g><path style="opacity:1" fill="#fce6ef" d="M 148.5,205.5 C 147.833,206.167 147.833,206.167 148.5,205.5 Z"/></g>
<g><path style="opacity:1" fill="#eb8385" d="M 152.5,206.5 C 155.833,206.5 159.167,206.5 162.5,206.5C 161.469,207.249 160.302,207.915 159,208.5C 156.723,207.883 154.556,207.216 152.5,206.5 Z"/></g>
<g><path style="opacity:1" fill="#cbe1c8" d="M 619.5,211.5 C 627.437,221.439 632.604,232.772 635,245.5C 636.989,258.289 636.322,270.956 633,283.5C 630.097,293.374 626.93,303.041 623.5,312.5C 623.322,311.305 622.989,310.138 622.5,309C 623.578,302.699 625.745,296.866 629,291.5C 629.109,286.944 630.109,282.611 632,278.5C 632.667,267.833 632.667,257.167 632,246.5C 628.898,237.572 626.065,228.572 623.5,219.5C 619.906,218.112 618.573,215.445 619.5,211.5 Z"/></g>
<g><path style="opacity:1" fill="#fcfdfb" d="M 309.5,256.5 C 311.527,256.338 313.527,256.505 315.5,257C 316.988,258.717 318.821,259.884 321,260.5C 328.108,275.412 326.608,289.246 316.5,302C 315.333,302.167 314.167,302.333 313,302.5C 310.315,301.819 307.982,300.485 306,298.5C 300.895,287.143 300.228,275.476 304,263.5C 305.852,261.043 307.686,258.709 309.5,256.5 Z"/></g>
<g><path style="opacity:1" fill="#c9e0c6" d="M 94.5,338.5 C 96.672,338.837 98.5054,339.837 100,341.5C 101.895,340.311 103.895,339.311 106,338.5C 107.205,339.071 108.372,339.738 109.5,340.5C 107.841,341.998 106.175,343.498 104.5,345C 105,346.833 106.167,348 108,348.5C 109.662,347.003 111.162,345.337 112.5,343.5C 113.357,344.736 114.023,346.069 114.5,347.5C 112.98,349.662 111.98,351.995 111.5,354.5C 112.552,354.351 113.552,354.517 114.5,355C 118.167,358 121.833,361 125.5,364C 128.366,365.276 131.2,365.443 134,364.5C 135.319,366.25 135.819,368.25 135.5,370.5C 138.114,370.277 139.781,371.444 140.5,374C 142.901,374.795 145.068,375.962 147,377.5C 148,377.167 149,376.833 150,376.5C 151.935,378.102 154.101,379.269 156.5,380C 161.515,381.297 166.515,381.797 171.5,381.5C 171.5,383.167 171.5,384.833 171.5,386.5C 174.545,386.704 177.379,386.704 180,386.5C 181.816,387.329 183.649,388.163 185.5,389C 205.935,390.169 226.269,389.502 246.5,387C 248.666,384.612 251.332,383.112 254.5,382.5C 257.783,383.327 261.116,383.66 264.5,383.5C 265.07,389.315 262.737,393.315 257.5,395.5C 259.244,391.906 261.244,388.406 263.5,385C 254.565,386.856 245.565,388.856 236.5,391C 179.484,398.777 132.151,381.277 94.5,338.5 Z"/></g>
<g><path style="opacity:1" fill="#cae0c7" d="M 481.5,429.5 C 488.809,430.472 496.142,431.306 503.5,432C 480.677,449.411 455.344,462.078 427.5,470C 405.008,474.692 382.341,475.692 359.5,473C 351.803,472.1 344.47,470.267 337.5,467.5C 361.167,471.13 385.167,472.297 409.5,471C 417.695,470.313 425.695,468.979 433.5,467C 436.554,464.806 439.888,463.139 443.5,462C 448.99,461.849 453.324,459.516 456.5,455C 459.393,453.851 462.393,453.351 465.5,453.5C 465.095,449.952 465.595,446.619 467,443.5C 467.497,445.81 467.663,448.143 467.5,450.5C 470.99,450.849 473.323,449.349 474.5,446C 479.286,444.676 483.952,443.176 488.5,441.5C 489.413,439.165 490.747,436.999 492.5,435C 489.124,433.101 485.457,432.268 481.5,432.5C 481.5,431.5 481.5,430.5 481.5,429.5 Z"/></g>
<g><path style="opacity:1" fill="#eddcd9" d="M 424.5,521.5 C 425.502,516.163 426.502,510.83 427.5,505.5C 423.762,504.387 420.096,503.387 416.5,502.5C 415.833,502.5 415.167,502.5 414.5,502.5C 415.194,498.198 416.86,494.365 419.5,491C 426.112,488.8 430.112,490.967 431.5,497.5C 429.509,505.13 427.676,512.797 426,520.5C 425.617,521.056 425.117,521.389 424.5,521.5 Z"/></g>
<g><path style="opacity:1" fill="#fcfcfc" d="M 416.5,502.5 C 415.744,494.759 419.078,491.259 426.5,492C 430.074,495.524 430.407,499.358 427.5,503.5C 423.906,502.574 420.24,502.241 416.5,502.5 Z"/></g>
<g><path style="opacity:1" fill="#ffe7da" d="M 413.5,502.5 C 413.198,505.373 412.531,508.039 411.5,510.5C 411.111,507.447 411.777,504.78 413.5,502.5 Z"/></g>
<g><path style="opacity:1" fill="#d42924" d="M 413.5,502.5 C 413.833,502.5 414.167,502.5 414.5,502.5C 415.167,502.5 415.833,502.5 416.5,502.5C 420.096,503.387 423.762,504.387 427.5,505.5C 426.502,510.83 425.502,516.163 424.5,521.5C 424.167,522.5 423.5,523.167 422.5,523.5C 420.5,523.5 418.5,523.5 416.5,523.5C 415.833,523.5 415.167,523.5 414.5,523.5C 410.364,520.871 409.364,517.205 411.5,512.5C 411.5,511.833 411.5,511.167 411.5,510.5C 412.531,508.039 413.198,505.373 413.5,502.5 Z"/></g>
<g><path style="opacity:1" fill="#141414" d="M 278.5,509.5 C 298.5,509.5 318.5,509.5 338.5,509.5C 338.5,516.5 338.5,523.5 338.5,530.5C 335.167,530.5 331.833,530.5 328.5,530.5C 328.5,526.5 328.5,522.5 328.5,518.5C 318.833,518.5 309.167,518.5 299.5,518.5C 299.5,525.5 299.5,532.5 299.5,539.5C 308.167,539.5 316.833,539.5 325.5,539.5C 325.5,542.5 325.5,545.5 325.5,548.5C 316.833,548.5 308.167,548.5 299.5,548.5C 299.5,556.167 299.5,563.833 299.5,571.5C 309.167,571.5 318.833,571.5 328.5,571.5C 328.5,567.167 328.5,562.833 328.5,558.5C 331.833,558.5 335.167,558.5 338.5,558.5C 338.5,565.833 338.5,573.167 338.5,580.5C 318.5,580.5 298.5,580.5 278.5,580.5C 278.5,577.5 278.5,574.5 278.5,571.5C 281.5,571.5 284.5,571.5 287.5,571.5C 287.5,553.833 287.5,536.167 287.5,518.5C 284.5,518.5 281.5,518.5 278.5,518.5C 278.5,515.5 278.5,512.5 278.5,509.5 Z"/></g>
<g><path style="opacity:1" fill="#101010" d="M 361.5,509.5 C 361.169,530.34 361.503,551.007 362.5,571.5C 365.167,571.5 367.833,571.5 370.5,571.5C 370.5,574.5 370.5,577.5 370.5,580.5C 361.5,580.5 352.5,580.5 343.5,580.5C 343.5,577.5 343.5,574.5 343.5,571.5C 346.5,571.5 349.5,571.5 352.5,571.5C 352.5,553.833 352.5,536.167 352.5,518.5C 349.5,518.5 346.5,518.5 343.5,518.5C 343.5,515.5 343.5,512.5 343.5,509.5C 349.5,509.5 355.5,509.5 361.5,509.5 Z"/></g>
<g><path style="opacity:1" fill="#4c4c4c" d="M 361.5,509.5 C 362.239,509.369 362.906,509.536 363.5,510C 362.564,529.872 362.231,550.372 362.5,571.5C 361.503,551.007 361.169,530.34 361.5,509.5 Z"/></g>
<g><path style="opacity:1" fill="#141414" d="M 374.5,509.5 C 380.833,509.5 387.167,509.5 393.5,509.5C 393.5,530.167 393.5,550.833 393.5,571.5C 396.167,571.5 398.833,571.5 401.5,571.5C 401.5,574.5 401.5,577.5 401.5,580.5C 392.5,580.5 383.5,580.5 374.5,580.5C 374.5,577.5 374.5,574.5 374.5,571.5C 377.5,571.5 380.5,571.5 383.5,571.5C 383.5,553.833 383.5,536.167 383.5,518.5C 380.5,518.5 377.5,518.5 374.5,518.5C 374.5,515.5 374.5,512.5 374.5,509.5 Z"/></g>
<g><path style="opacity:1" fill="#ffe6db" d="M 411.5,512.5 C 409.364,517.205 410.364,520.871 414.5,523.5C 412.61,523.703 411.11,523.037 410,521.5C 409.073,518.137 409.573,515.137 411.5,512.5 Z"/></g>
<g><path style="opacity:1" fill="#f10203" d="M 414.5,504.5 C 418.285,504.631 421.952,505.298 425.5,506.5C 425.234,512.054 424.234,517.388 422.5,522.5C 419.117,522.743 415.951,522.076 413,520.5C 413.45,515.202 413.95,509.868 414.5,504.5 Z"/></g>
<g><path style="opacity:1" fill="#ffdbcf" d="M 416.5,523.5 C 418.5,523.5 420.5,523.5 422.5,523.5C 421.122,524.234 419.622,524.901 418,525.5C 417.283,524.956 416.783,524.289 416.5,523.5 Z"/></g>
<g><path style="opacity:1" fill="#151515" d="M 481.5,536.5 C 482.167,537.833 483.167,538.833 484.5,539.5C 485.906,539.973 486.573,540.973 486.5,542.5C 486.427,544.027 487.094,545.027 488.5,545.5C 489.301,547.042 489.634,548.708 489.5,550.5C 489.5,552.833 489.5,555.167 489.5,557.5C 476.167,557.5 462.833,557.5 449.5,557.5C 448.861,558.097 448.528,558.93 448.5,560C 448.387,561.699 449.053,562.866 450.5,563.5C 459.269,575.623 469.269,576.623 480.5,566.5C 481.391,565.89 482.391,565.557 483.5,565.5C 486.09,565.918 488.423,566.918 490.5,568.5C 482.245,579.425 471.245,583.591 457.5,581C 439.163,574.163 433.496,561.663 440.5,543.5C 441.906,543.027 442.573,542.027 442.5,540.5C 449.523,531.21 458.857,527.71 470.5,530C 474.858,531.172 478.525,533.339 481.5,536.5 Z M 466.5,537.5 C 467.93,538.537 469.597,539.204 471.5,539.5C 473.475,541.137 475.475,542.804 477.5,544.5C 477.66,546.153 478.326,547.486 479.5,548.5C 469.889,550.474 459.889,551.141 449.5,550.5C 451.582,541.613 457.249,537.279 466.5,537.5 Z"/></g>
<g><path style="opacity:1" fill="#141414" d="M 406.5,530.5 C 412.5,530.5 418.5,530.5 424.5,530.5C 424.5,544.167 424.5,557.833 424.5,571.5C 427.167,571.5 429.833,571.5 432.5,571.5C 432.5,574.5 432.5,577.5 432.5,580.5C 423.833,580.5 415.167,580.5 406.5,580.5C 406.5,577.5 406.5,574.5 406.5,571.5C 409.167,571.5 411.833,571.5 414.5,571.5C 414.5,560.833 414.5,550.167 414.5,539.5C 411.833,539.5 409.167,539.5 406.5,539.5C 406.5,536.5 406.5,533.5 406.5,530.5 Z"/></g>
<g><path style="opacity:1" fill="#a4a4a4" d="M 481.5,536.5 C 483.5,536.5 484.5,537.5 484.5,539.5C 483.167,538.833 482.167,537.833 481.5,536.5 Z"/></g>
<g><path style="opacity:1" fill="#7b7b7b" d="M 466.5,537.5 C 468.698,537.12 470.365,537.787 471.5,539.5C 469.597,539.204 467.93,538.537 466.5,537.5 Z"/></g>
<g><path style="opacity:1" fill="#8b8b8b" d="M 442.5,540.5 C 442.573,542.027 441.906,543.027 440.5,543.5C 440.427,541.973 441.094,540.973 442.5,540.5 Z"/></g>
<g><path style="opacity:1" fill="#a1a1a1" d="M 486.5,542.5 C 487.906,542.973 488.573,543.973 488.5,545.5C 487.094,545.027 486.427,544.027 486.5,542.5 Z"/></g>
<g><path style="opacity:1" fill="#ababab" d="M 477.5,544.5 C 479.104,545.287 479.771,546.62 479.5,548.5C 478.326,547.486 477.66,546.153 477.5,544.5 Z"/></g>
<g><path style="opacity:1" fill="#9a9a9a" d="M 489.5,550.5 C 490.216,552.556 490.883,554.723 491.5,557C 490.906,557.464 490.239,557.631 489.5,557.5C 489.5,555.167 489.5,552.833 489.5,550.5 Z"/></g>
<g><path style="opacity:1" fill="#868686" d="M 449.5,557.5 C 449.517,559.565 449.85,561.565 450.5,563.5C 449.053,562.866 448.387,561.699 448.5,560C 448.528,558.93 448.861,558.097 449.5,557.5 Z"/></g>
<g><path style="opacity:1" fill="#8c8c8c" d="M 483.5,565.5 C 482.391,565.557 481.391,565.89 480.5,566.5C 481.053,564.448 482.053,564.115 483.5,565.5 Z"/></g>
</svg>
